<svg width="25" height="25" viewBox="0 0 25 25" fill="none" xmlns="http://www.w3.org/2000/svg">
<path d="M10.0266 21.93L9.16663 22.5L6.16663 20.5L3.16663 22.5V3.5H21.1666V10.7C20.5366 10.43 19.8066 10.43 19.1666 10.72V5.5H5.16663V18.76L6.16663 18.1L9.16663 20.1L10.0266 19.5V21.93ZM12.0266 20.46L18.1666 14.33L20.1966 16.37L14.0666 22.5H12.0266V20.46ZM21.8766 14.69L20.8966 15.67L18.8566 13.63L19.8366 12.65L19.8466 12.64L19.8566 12.63C20.0266 12.47 20.2866 12.46 20.4766 12.59C20.5066 12.6 20.5366 12.63 20.5566 12.65L21.8766 13.97C22.0766 14.17 22.0766 14.5 21.8766 14.69ZM17.1666 9.5V7.5H7.16663V9.5H17.1666ZM15.1666 13.5V11.5H7.16663V13.5H15.1666Z" fill="#C4C4C4"/>
</svg>
