<svg width="29" height="29" viewBox="0 0 29 29" fill="none" xmlns="http://www.w3.org/2000/svg">
<path d="M20.0833 7.49996V20.9166C20.0833 22.1543 19.5917 23.3413 18.7165 24.2165C17.8413 25.0916 16.6543 25.5833 15.4167 25.5833C14.179 25.5833 12.992 25.0916 12.1168 24.2165C11.2417 23.3413 10.75 22.1543 10.75 20.9166V6.33329C10.75 5.55975 11.0573 4.81788 11.6043 4.2709C12.1513 3.72392 12.8931 3.41663 13.6667 3.41663C14.4402 3.41663 15.1821 3.72392 15.7291 4.2709C16.276 4.81788 16.5833 5.55975 16.5833 6.33329V18.5833C16.5833 18.8927 16.4604 19.1895 16.2416 19.4083C16.0228 19.627 15.7261 19.75 15.4167 19.75C15.1072 19.75 14.8105 19.627 14.5917 19.4083C14.3729 19.1895 14.25 18.8927 14.25 18.5833V7.49996H12.5V18.5833C12.5 19.3568 12.8073 20.0987 13.3543 20.6457C13.9013 21.1927 14.6431 21.5 15.4167 21.5C16.1902 21.5 16.9321 21.1927 17.4791 20.6457C18.026 20.0987 18.3333 19.3568 18.3333 18.5833V6.33329C18.3333 5.09562 17.8417 3.90863 16.9665 3.03346C16.0913 2.15829 14.9043 1.66663 13.6667 1.66663C12.429 1.66663 11.242 2.15829 10.3668 3.03346C9.49167 3.90863 9 5.09562 9 6.33329V20.9166C9 22.6184 9.67604 24.2505 10.8794 25.4539C12.0828 26.6573 13.7149 27.3333 15.4167 27.3333C17.1185 27.3333 18.7506 26.6573 19.9539 25.4539C21.1573 24.2505 21.8333 22.6184 21.8333 20.9166V7.49996H20.0833Z" fill="#C4C4C4"/>
</svg>
