<svg width="24" height="25" viewBox="0 0 24 25" fill="none" xmlns="http://www.w3.org/2000/svg">
<path d="M12 2.5C13.8565 2.5 15.637 3.2375 16.9497 4.55025C18.2625 5.86301 19 7.64348 19 9.5C19 11.3565 18.2625 13.137 16.9497 14.4497C15.637 15.7625 13.8565 16.5 12 16.5C10.1435 16.5 8.36301 15.7625 7.05025 14.4497C5.7375 13.137 5 11.3565 5 9.5C5 7.64348 5.7375 5.86301 7.05025 4.55025C8.36301 3.2375 10.1435 2.5 12 2.5ZM12 4.5C10.6739 4.5 9.40215 5.02678 8.46447 5.96447C7.52678 6.90215 7 8.17392 7 9.5C7 10.8261 7.52678 12.0979 8.46447 13.0355C9.40215 13.9732 10.6739 14.5 12 14.5C12.6566 14.5 13.3068 14.3707 13.9134 14.1194C14.52 13.8681 15.0712 13.4998 15.5355 13.0355C15.9998 12.5712 16.3681 12.02 16.6194 11.4134C16.8707 10.8068 17 10.1566 17 9.5C17 8.17392 16.4732 6.90215 15.5355 5.96447C14.5979 5.02678 13.3261 4.5 12 4.5ZM12 6.5C12.7956 6.5 13.5587 6.81607 14.1213 7.37868C14.6839 7.94129 15 8.70435 15 9.5C15 10.2956 14.6839 11.0587 14.1213 11.6213C13.5587 12.1839 12.7956 12.5 12 12.5C11.2044 12.5 10.4413 12.1839 9.87868 11.6213C9.31607 11.0587 9 10.2956 9 9.5C9 8.70435 9.31607 7.94129 9.87868 7.37868C10.4413 6.81607 11.2044 6.5 12 6.5ZM6 22.5C5.46957 22.5 4.96086 22.2893 4.58579 21.9142C4.21071 21.5391 4 21.0304 4 20.5C4 20.12 4.1 19.77 4.29 19.47L6.11 16.31C7.74676 17.7234 9.83742 18.5008 12 18.5C14.25 18.5 16.31 17.67 17.89 16.31L19.71 19.47C19.9 19.77 20 20.12 20 20.5C20 21.0304 19.7893 21.5391 19.4142 21.9142C19.0391 22.2893 18.5304 22.5 18 22.5H6Z" fill="#000244"/>
</svg>
